<svg cache-id="1049db59391b485b99bc07e086578d3b" id="eaWqINPOjir1" xmlns="http://www.w3.org/2000/svg" xmlns:xlink="http://www.w3.org/1999/xlink" viewBox="0 0 300 300" shape-rendering="geometricPrecision" text-rendering="geometricPrecision" style="background-color:transparent"><defs><linearGradient id="eaWqINPOjir2-fill" x1="0" y1="0.5" x2="1" y2="0.5" spreadMethod="pad" gradientUnits="objectBoundingBox" gradientTransform="translate(0 0)"><stop id="eaWqINPOjir2-fill-0" offset="0%" stop-color="#42f0ff"/><stop id="eaWqINPOjir2-fill-1" offset="100%" stop-color="#90acff"/></linearGradient></defs><path d="M0.00002,150C0.00002,67.1573,67.1573,0.00002,150,0.00002c37.8579,0,72.44013,14.02483,98.83447,37.16229l-4.42987,4.42987.00739.00739-46.36566,46.36566-.00739-.00739-3.64199,3.64199c-14.30366-13.39699-33.53188-21.59982-54.67598-21.59982-37.41048,0-68.82339,25.67867-77.57434,60.37161c8.95676-40.26632,44.88932-70.37165,87.85336-70.37165h.00001c14.0094,0,27.27118,3.2009,39.09391,8.91125l29.41518-29.41518c-19.89235-12.35883-43.36724-19.49602-68.50911-19.49602-71.79702,0-130,58.20298-130,130s58.20298,130,130,130s130-58.20298,130-130c0-25.12646-7.12845-48.58798-19.47331-68.47253l-29.41858,29.41858c5.69826,11.81264,8.89194,25.06032,8.89194,39.05393c0,49.70565-40.29439,90.00004-90.00004,90.00004-42.96404,0-78.89661-30.10532-87.85337-70.37165C70.89756,204.32133,102.31047,230,139.72096,230c38.23895,0,70.21175-26.82859,78.1222-62.68955c1.40832-5.53623,2.1568-11.33592,2.1568-17.31044s-.74848-11.77414-2.15677-17.31033c-2.05485-9.31547-5.73339-18.02144-10.72367-25.80599l13.13772-13.13772c.0066.00824.0132.01647.0198.02471l28.40359-28.40359c-.00685-.00798-.01371-.01597-.02056-.02395l14.1776-14.1776c23.13746,26.39434,37.16229,60.97657,37.16229,98.83447c0,82.8427-67.15728,149.99998-149.99998,149.99998s-149.99998-67.15728-149.99998-149.99998L0.00002,150Zm168.08727-6.33438l16.85017,22.57966-28.17161-.36008-16.26755,23.00296-8.36305-26.90407-26.90407-8.36305l23.00296-16.26755-.36008-28.17161l22.57966,16.85017l26.68152-9.04797-9.04795,26.68154Z" fill="url(#eaWqINPOjir2-fill)" stroke-width="0"/></svg>
